<svg width="512" height="512" viewBox="0 0 512 512" fill="none" xmlns="http://www.w3.org/2000/svg">
  <style>
  /* Default is light mode */
    path {
      fill: #fff;
    }
    rect {
      fill: #283341;
    }

  /* Media query for dark mode */
    @media (prefers-color-scheme: dark) {
      path {
          fill: #283341;
      }
      rect {
          fill: #fff;
      }
    }
  </style>
<rect width="512" height="512" rx="64" />
<path d="M282.324 141.961C286.271 138.013 292.672 138.013 296.622 141.961L433.039 278.401C436.987 282.349 436.987 288.752 433.039 292.702L420.566 305.175L269.853 154.438L282.324 141.961Z" fill="white"/>
<path d="M311.008 226.258L227.942 143.217C223.994 139.269 217.586 139.269 213.643 143.222L78.9603 277.987C75.0125 281.937 75.0125 288.34 78.9649 292.288L154.889 368.185C158.837 372.13 165.228 372.135 169.183 368.189L255.844 281.696L342.759 368.24C346.7 372.165 353.066 372.169 357.016 368.249L404.483 321.134L311.008 226.258ZM189.108 283.717C173.471 283.717 161.301 270.985 161.301 255.91C161.301 240.828 173.471 228.1 189.108 228.1C204.746 228.1 216.916 240.83 216.916 255.91C216.911 270.989 204.742 283.717 189.108 283.717Z" fill="white"/>
<path d="M199.078 258.314C199.051 257.01 198.522 255.841 197.491 254.81C196.722 254.038 195.89 253.588 195.004 253.457C194.101 253.315 193.24 253.365 192.418 253.613C191.607 253.85 190.583 254.233 189.343 254.768C188.206 255.276 187.338 255.636 186.738 255.845C186.137 256.027 185.608 256.098 185.151 256.061C184.708 256.008 184.29 255.786 183.897 255.395C183.349 254.846 183.114 254.233 183.192 253.553C183.27 252.874 183.429 252.143 184.733 250.837L187.329 248.241L185.606 246.519L183.702 248.423C183.61 248.462 183.539 248.455 183.486 248.404L182.056 246.896C181.991 246.831 181.913 246.804 181.819 246.817C181.727 246.804 181.649 246.831 181.585 246.896L180.055 248.423C179.991 248.489 179.959 248.572 179.959 248.678C179.959 248.756 179.991 248.827 180.055 248.894L181.543 250.304C181.594 250.357 181.601 250.428 181.562 250.52C180.673 251.721 180.244 252.949 180.269 254.203C180.308 255.444 180.825 256.56 181.817 257.552C182.586 258.323 183.417 258.787 184.304 258.941C185.179 259.086 186.04 259.033 186.888 258.787C187.737 258.539 188.769 258.147 189.983 257.612C191.093 257.155 191.949 256.833 192.549 256.652C193.151 256.443 193.686 256.364 194.156 256.415C194.613 256.454 195.025 256.656 195.39 257.024C195.925 257.556 196.166 258.193 196.113 258.923C196.074 259.639 195.769 260.496 194.997 261.265L191.212 264.915L192.847 266.676L195.447 264.331C195.539 264.292 195.61 264.299 195.663 264.352L196.956 265.684C197.02 265.748 197.094 265.781 197.172 265.781C197.275 265.781 197.363 265.748 197.427 265.684L198.956 264.157C199.021 264.09 199.048 264.015 199.034 263.92C199.046 263.828 199.021 263.75 198.956 263.684L197.645 262.409C197.592 262.359 197.585 262.285 197.624 262.193C198.621 260.912 199.106 259.619 199.078 258.314Z" fill="white"/>
</svg>
