<svg width="242" height="37" viewBox="0 0 242 37" fill="none" xmlns="http://www.w3.org/2000/svg">
<path d="M20.125 22.2969C20.0521 23.8802 19.625 25.2812 18.8438 26.5C18.0625 27.7083 16.9635 28.6458 15.5469 29.3125C14.1406 29.9792 12.5312 30.3125 10.7188 30.3125C7.72917 30.3125 5.375 29.3385 3.65625 27.3906C1.9375 25.4427 1.07812 22.6927 1.07812 19.1406V18.0156C1.07812 15.7865 1.46354 13.8385 2.23438 12.1719C3.01562 10.4948 4.13542 9.20312 5.59375 8.29688C7.05208 7.38021 8.73958 6.92188 10.6562 6.92188C13.4167 6.92188 15.6354 7.65104 17.3125 9.10938C18.9896 10.5573 19.9427 12.5573 20.1719 15.1094H14.7031C14.6615 13.724 14.3125 12.7292 13.6562 12.125C13 11.5208 12 11.2188 10.6562 11.2188C9.29167 11.2188 8.29167 11.7292 7.65625 12.75C7.02083 13.7708 6.6875 15.401 6.65625 17.6406V19.25C6.65625 21.6771 6.95833 23.4115 7.5625 24.4531C8.17708 25.4948 9.22917 26.0156 10.7188 26.0156C11.9792 26.0156 12.9427 25.7188 13.6094 25.125C14.276 24.5312 14.6302 23.5885 14.6719 22.2969H20.125ZM26.4525 21.3906C26.4525 19.7031 26.7806 18.2031 27.4369 16.8906C28.0931 15.5677 29.0358 14.5521 30.265 13.8438C31.4942 13.1354 32.9369 12.7812 34.5931 12.7812C37.1244 12.7812 39.1192 13.5677 40.5775 15.1406C42.0358 16.7031 42.765 18.8333 42.765 21.5312V21.7188C42.765 24.3542 42.0306 26.4479 40.5619 28C39.1035 29.5417 37.1244 30.3125 34.6244 30.3125C32.2181 30.3125 30.2858 29.5938 28.8275 28.1562C27.3692 26.7083 26.5827 24.75 26.4681 22.2812L26.4525 21.3906ZM31.7181 21.7188C31.7181 23.2812 31.9629 24.4271 32.4525 25.1562C32.9421 25.8854 33.666 26.25 34.6244 26.25C36.4994 26.25 37.4577 24.8073 37.4994 21.9219V21.3906C37.4994 18.3594 36.5306 16.8438 34.5931 16.8438C32.8327 16.8438 31.8796 18.151 31.7337 20.7656L31.7181 21.7188ZM54.7019 13.0938L54.8737 15.0781C56.0717 13.5469 57.681 12.7812 59.7019 12.7812C61.8373 12.7812 63.28 13.6302 64.03 15.3281C65.1758 13.6302 66.8321 12.7812 68.9987 12.7812C72.4258 12.7812 74.1862 14.8542 74.28 19V30H68.9987V19.3281C68.9987 18.4635 68.8529 17.8333 68.5612 17.4375C68.2696 17.0417 67.7383 16.8438 66.9675 16.8438C65.9258 16.8438 65.1498 17.3073 64.6394 18.2344L64.655 18.4531V30H59.3737V19.3594C59.3737 18.474 59.2331 17.8333 58.9519 17.4375C58.6706 17.0417 58.1342 16.8438 57.3425 16.8438C56.3321 16.8438 55.5612 17.3073 55.03 18.2344V30H49.7644V13.0938H54.7019ZM86.9044 13.0938L87.0762 15.0781C88.2742 13.5469 89.8835 12.7812 91.9044 12.7812C94.0398 12.7812 95.4825 13.6302 96.2325 15.3281C97.3783 13.6302 99.0346 12.7812 101.201 12.7812C104.628 12.7812 106.389 14.8542 106.482 19V30H101.201V19.3281C101.201 18.4635 101.055 17.8333 100.764 17.4375C100.472 17.0417 99.9408 16.8438 99.17 16.8438C98.1283 16.8438 97.3523 17.3073 96.8419 18.2344L96.8575 18.4531V30H91.5762V19.3594C91.5762 18.474 91.4356 17.8333 91.1544 17.4375C90.8731 17.0417 90.3367 16.8438 89.545 16.8438C88.5346 16.8438 87.7637 17.3073 87.2325 18.2344V30H81.9669V13.0938H86.9044ZM122.31 30.3125C119.716 30.3125 117.617 29.5417 116.013 28C114.409 26.4479 113.607 24.4323 113.607 21.9531V21.5156C113.607 19.7865 113.925 18.2604 114.56 16.9375C115.206 15.6146 116.143 14.5938 117.372 13.875C118.602 13.1458 120.06 12.7812 121.747 12.7812C124.122 12.7812 125.997 13.5208 127.372 15C128.747 16.4688 129.435 18.5208 129.435 21.1562V23.2031H118.966C119.154 24.151 119.565 24.8958 120.201 25.4375C120.836 25.9792 121.659 26.25 122.669 26.25C124.336 26.25 125.638 25.6667 126.576 24.5L128.982 27.3438C128.326 28.25 127.393 28.974 126.185 29.5156C124.987 30.0469 123.695 30.3125 122.31 30.3125ZM121.716 16.8438C120.175 16.8438 119.258 17.8646 118.966 19.9062H124.279V19.5C124.3 18.6562 124.086 18.0052 123.638 17.5469C123.19 17.0781 122.55 16.8438 121.716 16.8438ZM146.434 17.8594L144.7 17.7344C143.044 17.7344 141.981 18.2552 141.512 19.2969V30H136.247V13.0938H141.184L141.356 15.2656C142.242 13.6094 143.476 12.7812 145.059 12.7812C145.622 12.7812 146.111 12.8438 146.528 12.9688L146.434 17.8594ZM159.809 26.25C160.548 26.25 161.121 26.0521 161.527 25.6562C161.934 25.25 162.132 24.6875 162.121 23.9688H167.059C167.059 25.8229 166.392 27.3438 165.059 28.5312C163.736 29.7188 162.027 30.3125 159.934 30.3125C157.475 30.3125 155.538 29.5417 154.121 28C152.705 26.4583 151.996 24.3229 151.996 21.5938V21.375C151.996 19.6667 152.309 18.1615 152.934 16.8594C153.569 15.5469 154.481 14.5417 155.668 13.8438C156.856 13.1354 158.262 12.7812 159.887 12.7812C162.085 12.7812 163.83 13.3906 165.121 14.6094C166.413 15.8281 167.059 17.4792 167.059 19.5625H162.121C162.121 18.6875 161.908 18.0156 161.481 17.5469C161.054 17.0781 160.481 16.8438 159.762 16.8438C158.397 16.8438 157.6 17.7135 157.371 19.4531C157.298 20.0052 157.262 20.7656 157.262 21.7344C157.262 23.4323 157.465 24.6094 157.871 25.2656C158.277 25.9219 158.923 26.25 159.809 26.25ZM182.105 30.3125C179.511 30.3125 177.412 29.5417 175.808 28C174.204 26.4479 173.402 24.4323 173.402 21.9531V21.5156C173.402 19.7865 173.72 18.2604 174.355 16.9375C175.001 15.6146 175.938 14.5938 177.167 13.875C178.397 13.1458 179.855 12.7812 181.542 12.7812C183.917 12.7812 185.792 13.5208 187.167 15C188.542 16.4688 189.23 18.5208 189.23 21.1562V23.2031H178.761C178.949 24.151 179.36 24.8958 179.996 25.4375C180.631 25.9792 181.454 26.25 182.464 26.25C184.131 26.25 185.433 25.6667 186.371 24.5L188.777 27.3438C188.121 28.25 187.188 28.974 185.98 29.5156C184.782 30.0469 183.49 30.3125 182.105 30.3125ZM181.511 16.8438C179.97 16.8438 179.053 17.8646 178.761 19.9062H184.074V19.5C184.095 18.6562 183.881 18.0052 183.433 17.5469C182.985 17.0781 182.345 16.8438 181.511 16.8438ZM199.261 24.8906C200.094 24.8906 200.787 25.1406 201.339 25.6406C201.891 26.1302 202.167 26.7604 202.167 27.5312C202.167 28.3021 201.891 28.9375 201.339 29.4375C200.787 29.9271 200.094 30.1719 199.261 30.1719C198.417 30.1719 197.719 29.9219 197.167 29.4219C196.625 28.9219 196.354 28.2917 196.354 27.5312C196.354 26.7708 196.625 26.1406 197.167 25.6406C197.719 25.1406 198.417 24.8906 199.261 24.8906ZM215.994 13.0938V30.5781C215.984 32.5781 215.411 34.1198 214.276 35.2031C213.14 36.2865 211.557 36.8281 209.526 36.8281C208.651 36.8281 207.822 36.7396 207.041 36.5625V32.5781C207.645 32.6719 208.14 32.7188 208.526 32.7188C209.984 32.7188 210.713 31.9948 210.713 30.5469V13.0938H215.994ZM210.322 8.73438C210.322 7.98438 210.593 7.36979 211.135 6.89062C211.677 6.41146 212.38 6.17188 213.244 6.17188C214.109 6.17188 214.812 6.41146 215.354 6.89062C215.895 7.36979 216.166 7.98438 216.166 8.73438C216.166 9.48438 215.895 10.099 215.354 10.5781C214.812 11.0573 214.109 11.2969 213.244 11.2969C212.38 11.2969 211.677 11.0573 211.135 10.5781C210.593 10.099 210.322 9.48438 210.322 8.73438ZM232.478 25.25C232.478 24.8021 232.244 24.4427 231.775 24.1719C231.306 23.901 230.416 23.6198 229.103 23.3281C227.791 23.0365 226.707 22.6562 225.853 22.1875C224.999 21.7083 224.348 21.1302 223.9 20.4531C223.452 19.776 223.228 19 223.228 18.125C223.228 16.5729 223.869 15.2969 225.15 14.2969C226.431 13.2865 228.108 12.7812 230.181 12.7812C232.41 12.7812 234.202 13.2865 235.556 14.2969C236.91 15.3073 237.587 16.6354 237.587 18.2812H232.306C232.306 16.9271 231.593 16.25 230.166 16.25C229.614 16.25 229.15 16.4062 228.775 16.7188C228.4 17.0208 228.212 17.401 228.212 17.8594C228.212 18.3281 228.442 18.7083 228.9 19C229.358 19.2917 230.087 19.5312 231.087 19.7188C232.098 19.9062 232.983 20.1302 233.744 20.3906C236.285 21.2656 237.556 22.8333 237.556 25.0938C237.556 26.6354 236.869 27.8906 235.494 28.8594C234.129 29.8281 232.358 30.3125 230.181 30.3125C228.733 30.3125 227.442 30.0521 226.306 29.5312C225.171 29.0104 224.285 28.3021 223.65 27.4062C223.015 26.5104 222.697 25.5677 222.697 24.5781H227.619C227.64 25.3594 227.9 25.9323 228.4 26.2969C228.9 26.651 229.541 26.8281 230.322 26.8281C231.041 26.8281 231.577 26.6823 231.931 26.3906C232.296 26.099 232.478 25.7188 232.478 25.25Z" fill="#292B83"/>
</svg>
